<?xml version="1.0" encoding="iso-8859-1"?>
<!-- Generator: Adobe Illustrator 16.0.0, SVG Export Plug-In . SVG Version: 6.00 Build 0)  -->
<!DOCTYPE svg PUBLIC "-//W3C//DTD SVG 1.1//EN" "http://www.w3.org/Graphics/SVG/1.1/DTD/svg11.dtd">
<svg version="1.1" id="Capa_1" xmlns="http://www.w3.org/2000/svg" xmlns:xlink="http://www.w3.org/1999/xlink" x="0px" y="0px"
	 width="612px" height="612px" viewBox="0 0 612 612" style="enable-background:new 0 0 612 612;" xml:space="preserve">
<g>
	<g>
		<g>
			<path d="M306.006,0.006C137.29,0.006,0,137.283,0,306c0,168.716,137.29,305.993,306.006,305.993
				C474.735,611.994,612,474.705,612,306C612,137.283,474.735,0.006,306.006,0.006z M306.006,589.299
				C149.777,589.299,22.695,462.204,22.695,306c0-156.216,127.095-283.299,283.311-283.299c156.217,0,283.3,127.095,283.3,283.299
				C589.318,462.204,462.235,589.299,306.006,589.299z"/>
			<path d="M538.75,275.278c-0.819-6.174-6.604-10.509-12.715-9.741l-145.393,19.179l129.691-58.608
				c5.443-2.458,8.052-8.708,5.973-14.303c-1.737-4.649-43.863-114.103-167.671-136.672c-6.148-1.109-12.047,2.949-13.181,9.085
				l-26.651,144.208L293.09,86.979c-0.668-5.935-5.81-9.993-11.77-10.068c-4.953,0.227-122.08,6.502-181.734,117.304
				c-2.961,5.494-0.92,12.349,4.574,15.335l128.406,69.558L93.815,250.228c-5.746-1.184-11.618,2.293-13.244,8.052
				c-1.336,4.776-31.729,118.06,55.029,209.206c2.243,2.368,5.229,3.541,8.216,3.541c2.81,0,5.607-1.033,7.8-3.125l106.442-100.86
				l-70.579,123.58c-2.961,5.19-1.399,11.77,3.566,15.083c2.079,1.374,51.841,33.885,121.361,33.91c0,0,0,0,0.013,0
				c32.738,0,64.568-7.31,94.598-21.712c5.646-2.709,8.039-9.451,5.344-15.108l-63.082-132.351l95.743,105.244
				c2.23,2.433,5.306,3.718,8.393,3.718c2.481,0,4.965-0.807,7.057-2.457C464.353,473.873,555.472,400.017,538.75,275.278z
				 M355.643,99.795c82.827,19.935,122.646,85.473,135.021,110.31L321.103,286.72L355.643,99.795z M125.205,195.147
				c44.507-72.633,119.156-90.274,146.602-94.382l20.54,184.935L125.205,195.147z M144.472,443.428
				c-55.205-64.871-48.779-141.322-44.167-168.692l182.162,37.929L144.472,443.428z M386.893,502.074
				c-23.865,9.842-48.866,14.845-74.46,14.845c-0.013,0-0.013,0-0.013,0c-46.057,0-83.167-16.243-99.612-24.888l92.278-161.598
				L386.893,502.074z M454.184,452.047l-125.205-137.63l188.487-24.862C524.057,374.512,473.979,432.604,454.184,452.047z"/>
		</g>
	</g>
</g>
<g>
</g>
<g>
</g>
<g>
</g>
<g>
</g>
<g>
</g>
<g>
</g>
<g>
</g>
<g>
</g>
<g>
</g>
<g>
</g>
<g>
</g>
<g>
</g>
<g>
</g>
<g>
</g>
<g>
</g>
</svg>
